<svg width="60" height="29" viewBox="0 0 60 29" fill="none" xmlns="http://www.w3.org/2000/svg">
<g clip-path="url(#clip0_201_79)">
<path d="M23.1887 0.365795L18.6376 0V6.06608H19.3187C20.681 6.06608 22.3528 5.48691 22.3528 5.27353V1.00593C22.941 0.914485 23.1268 0.670622 23.1887 0.365795ZM10.1238 0.396277L5.60367 0V7.28539H6.28478C7.61604 7.28539 9.31882 6.7367 9.31882 6.49284V1.00593C9.90705 0.944968 10.0618 0.701105 10.1238 0.396277ZM25.8822 0.609656L24.2104 2.89587H15.263L15.5107 3.77987H28.0803C28.5137 3.77987 28.8543 3.62746 28.9162 3.29215C27.8017 2.19476 25.8822 0.609656 25.8822 0.609656ZM11.8885 0.609656L10.2166 2.89587H0L0.247676 3.77987H14.0556C14.4891 3.77987 14.8296 3.62746 14.8915 3.29215C13.777 2.19476 11.8885 0.609656 11.8885 0.609656ZM13.4364 18.7469L13.1888 18.9298C14.2723 20.0882 15.325 21.9171 15.5417 23.5632C18.7305 25.8799 21.7955 19.7833 13.4364 18.7469ZM25.5726 14.8756L21.0525 14.4793V24.5996C21.0525 24.9959 20.8977 25.1178 20.4333 25.1178C19.7212 25.1178 16.1299 24.9045 16.1299 24.9045V25.3007C17.8327 25.5446 18.5138 25.9104 19.0401 26.3676C19.5974 26.8249 19.7522 27.526 19.876 28.5014C23.9317 28.1661 24.5199 26.9468 24.5199 24.6606V15.6377C25.2011 15.5767 25.5106 15.3329 25.5726 14.8756ZM22.167 6.55381L17.8017 6.15753V13.6563H21.2692V7.25491C21.9193 7.16346 22.1051 6.88912 22.167 6.55381ZM26.7181 15.1195L25.3249 17.1923H11.486L11.7337 18.0458H28.4828C28.8852 18.0458 29.1639 17.8934 29.2568 17.5581C28.3589 16.5827 26.7181 15.1195 26.7181 15.1195ZM24.6747 11.0348L23.0339 13.1076H12.6934L12.9411 13.9611H26.9038C27.3373 13.9611 27.6469 13.8087 27.7397 13.4734C26.5942 12.4675 24.6747 11.0348 24.6747 11.0348ZM25.6345 6.85863L23.9627 9.08388H12.0742L12.3219 9.96788H27.8636C28.297 9.96788 28.6376 9.81547 28.7304 9.48016C27.5849 8.41326 25.6345 6.85863 25.6345 6.85863ZM4.70585 26.4896V9.66305H8.97826V8.77905H4.82969L1.48606 7.40733V27.587H2.01237C3.43651 27.587 4.70585 26.8249 4.70585 26.4896ZM7.39933 8.77905H7.70892V26.2457H8.23523C9.31882 26.2457 10.8358 25.5751 10.8668 25.3617V10.0898C11.4241 9.99836 11.8265 9.7545 12.0123 9.54112L8.9473 7.16346L7.39933 8.77905ZM8.73059 23.1365H3.09595V24.0205H8.73059V23.1365ZM8.85442 15.7901H3.18883V16.6436H8.85442V15.7901Z" fill="#272223"/>
<path d="M31.0834 15.2719L31.331 16.1559H46.3154C46.7489 16.1559 47.0894 16.0035 47.1823 15.6682C45.9439 14.5708 43.9316 13.0466 43.9316 13.0466L42.1669 15.2719H31.0834ZM36.5013 15.2719C35.4796 18.9298 33.4982 22.6792 30.6809 25.2703L31.0214 25.6361C35.3248 23.2584 38.5446 19.9358 40.1545 15.7596V15.2719H36.5013ZM37.3681 10.608V28.3795H38.0183C39.3496 28.3795 40.8666 27.7089 40.8666 27.4041V11.8883C41.7025 11.7664 41.9502 11.492 42.0121 11.0348L37.3681 10.608ZM40.7118 17.9239L40.4331 18.1068C41.6096 19.2347 43.0028 21.0636 43.4053 22.6487C46.4702 24.6606 49.0399 18.8689 40.7118 17.9239ZM30.8666 9.29726L31.1143 10.1813H59.0398C59.4732 10.1813 59.8448 10.0288 59.9376 9.69354C58.4825 8.47422 56.0987 6.7367 56.0987 6.7367L54.0244 9.29726H30.8666ZM32.2908 4.35904L32.5385 5.24304H45.9439C46.3774 5.24304 46.687 5.09063 46.7798 4.75532C45.6343 3.65794 43.7148 2.10331 43.7148 2.10331L42.0121 4.35904H32.2908ZM47.1823 0C47.1823 11.8883 47.8944 21.7342 54.5507 27.0383C56.0367 28.1661 58.4206 29.355 59.7519 27.8918C60.2163 27.4041 60.0615 26.4896 59.0089 24.7825L59.628 19.6614L59.2875 19.6005C58.7612 20.9112 57.9562 22.5878 57.4609 23.4108C57.1822 23.929 56.9655 23.929 56.5011 23.5327C51.238 19.6614 50.7117 11.0957 50.8975 1.40221C51.6714 1.2498 51.9501 0.884001 52.012 0.487726L47.1823 0ZM52.5383 1.43269L52.2906 1.61559C53.4671 2.62152 54.7984 4.35904 55.2008 5.91367C58.3587 7.8036 60.7426 1.85945 52.5383 1.43269ZM54.4268 11.6749C52.9098 17.5886 49.1637 24.0814 42.6003 27.8003L42.848 28.1661C50.8975 25.3007 55.3556 19.3871 57.6466 13.7173C58.4516 13.7478 58.7302 13.5344 58.8541 13.1991L54.4268 11.6749ZM37.3991 0V9.60209H40.9285V1.21931C41.7644 1.09738 42.0121 0.792554 42.043 0.365795L37.3991 0Z" fill="#272223"/>
</g>
<defs>
<clipPath id="clip0_201_79">
<rect width="60" height="28.5714" fill="white"/>
</clipPath>
</defs>
</svg>
