<?xml version="1.0" encoding="utf-8"?>
<!-- Generator: Adobe Illustrator 25.2.3, SVG Export Plug-In . SVG Version: 6.00 Build 0)  -->
<svg version="1.1" id="圖層_1" xmlns="http://www.w3.org/2000/svg" xmlns:xlink="http://www.w3.org/1999/xlink" x="0px" y="0px"
	 viewBox="0 0 60 29" style="enable-background:new 0 0 60 29;" xml:space="preserve">
<style type="text/css">
	.st0{fill:#272223;}
</style>
<g>
	<path class="st0" d="M23.2,0.6l-4.6-0.4v6.1h0.7c1.4,0,3-0.6,3-0.8V1.2C22.9,1.1,23.1,0.9,23.2,0.6z M10.1,0.6L5.6,0.2v7.3h0.7
		c1.3,0,3-0.5,3-0.8V1.2C9.9,1.2,10.1,0.9,10.1,0.6z M25.9,0.8l-1.7,2.3h-8.9L15.5,4h12.6c0.4,0,0.8-0.2,0.8-0.5
		C27.8,2.4,25.9,0.8,25.9,0.8z M11.9,0.8l-1.7,2.3H0L0.2,4h13.8c0.4,0,0.8-0.2,0.8-0.5C13.8,2.4,11.9,0.8,11.9,0.8z M13.4,19
		l-0.2,0.2c1.1,1.2,2.1,3,2.4,4.6C18.7,26.1,21.8,20,13.4,19z M25.6,15.1l-4.5-0.4v10.1c0,0.4-0.2,0.5-0.6,0.5
		c-0.7,0-4.3-0.2-4.3-0.2v0.4c1.7,0.2,2.4,0.6,2.9,1.1c0.6,0.5,0.7,1.2,0.8,2.1c4.1-0.3,4.6-1.6,4.6-3.8v-9
		C25.2,15.8,25.5,15.5,25.6,15.1z M22.2,6.8l-4.4-0.4v7.5h3.5V7.5C21.9,7.4,22.1,7.1,22.2,6.8z M26.7,15.3l-1.4,2.1H11.5l0.2,0.9
		h16.7c0.4,0,0.7-0.2,0.8-0.5C28.4,16.8,26.7,15.3,26.7,15.3z M24.7,11.2L23,13.3H12.7l0.2,0.9h14c0.4,0,0.7-0.2,0.8-0.5
		C26.6,12.7,24.7,11.2,24.7,11.2z M25.6,7.1L24,9.3H12.1l0.2,0.9h15.5c0.4,0,0.8-0.2,0.9-0.5C27.6,8.6,25.6,7.1,25.6,7.1z M4.7,26.7
		V9.9H9V9H4.8L1.5,7.6v20.2H2C3.4,27.8,4.7,27,4.7,26.7z M7.4,9h0.3v17.5h0.5c1.1,0,2.6-0.7,2.6-0.9V10.3c0.6-0.1,1-0.3,1.1-0.5
		L8.9,7.4L7.4,9z M8.7,23.4H3.1v0.9h5.6V23.4z M8.9,16H3.2v0.9h5.7V16z"/>
	<path class="st0" d="M31.1,15.5l0.2,0.9h15c0.4,0,0.8-0.2,0.9-0.5c-1.2-1.1-3.3-2.6-3.3-2.6l-1.8,2.2H31.1z M36.5,15.5
		c-1,3.7-3,7.4-5.8,10l0.3,0.4c4.3-2.4,7.5-5.7,9.1-9.9v-0.5H36.5z M37.4,10.8v17.8H38c1.3,0,2.8-0.7,2.8-1V12.1
		c0.8-0.1,1.1-0.4,1.1-0.9L37.4,10.8z M40.7,18.1l-0.3,0.2c1.2,1.1,2.6,3,3,4.5C46.5,24.9,49,19.1,40.7,18.1z M30.9,9.5l0.2,0.9H59
		c0.4,0,0.8-0.2,0.9-0.5c-1.5-1.2-3.8-3-3.8-3L54,9.5H30.9z M32.3,4.6l0.2,0.9h13.4c0.4,0,0.7-0.2,0.8-0.5c-1.1-1.1-3.1-2.7-3.1-2.7
		L42,4.6H32.3z M47.2,0.2c0,11.9,0.7,21.7,7.4,27c1.5,1.1,3.9,2.3,5.2,0.9c0.5-0.5,0.3-1.4-0.7-3.1l0.6-5.1l-0.3-0.1
		c-0.5,1.3-1.3,3-1.8,3.8c-0.3,0.5-0.5,0.5-1,0.1c-5.3-3.9-5.8-12.4-5.6-22.1C51.7,1.5,52,1.1,52,0.7L47.2,0.2z M52.5,1.6l-0.2,0.2
		c1.2,1,2.5,2.7,2.9,4.3C58.4,8,60.7,2.1,52.5,1.6z M54.4,11.9c-1.5,5.9-5.3,12.4-11.8,16.1l0.2,0.4c8-2.9,12.5-8.8,14.8-14.4
		c0.8,0,1.1-0.2,1.2-0.5L54.4,11.9z M37.4,0.2v9.6h3.5V1.4C41.8,1.3,42,1,42,0.6L37.4,0.2z"/>
</g>
</svg>
